<svg xmlns="http://www.w3.org/2000/svg" viewBox="0 0 40.7 34.32"><path d="M12.22,29.86a.69.69,0,1,0,.7-.68A.69.69,0,0,0,12.22,29.86Z" fill="#1b181c"/><path d="M31.31,29.86a.69.69,0,1,0,.69-.68A.69.69,0,0,0,31.31,29.86Z" fill="#1b181c"/><path d="M4.89,4.26a.62.62,0,0,0-.62.62V18.22a.62.62,0,0,0,.62.62H20.38a.62.62,0,0,0,.62-.62V4.88a.62.62,0,0,0-.62-.62ZM19.76,17.6H5.51V5.5H19.76Z" fill="#1b181c"/><path d="M30.89,23.16a.62.62,0,0,0,.61-.62.61.61,0,0,0-.61-.62H28.57a.61.61,0,0,0-.61.62.61.61,0,0,0,.61.62Z" fill="#1b181c"/><path d="M2.64,30.48H8.56a4.4,4.4,0,0,0,8.71,0H27.65a4.39,4.39,0,0,0,8.7,0H38a2.69,2.69,0,0,0,2.68-2.69V22.54s0-.06,0-.08V19.24c0-6.66-3.3-10.22-6.09-12a8.86,8.86,0,0,0-4.92-1.43H25.3V.56a.6.6,0,0,0-.61-.6H.58A.6.6,0,0,0,0,.56V27.79A2.69,2.69,0,0,0,2.64,30.48ZM32,33a3.18,3.18,0,1,1,3.17-3.18A3.17,3.17,0,0,1,32,33ZM29,7h.61a7.81,7.81,0,0,1,4.25,1.21,12.23,12.23,0,0,1,5.51,10.39H32.58A13.07,13.07,0,0,0,29,12ZM25.3,7h2.46v5.23a.61.61,0,0,0,.2.44,11.93,11.93,0,0,1,3.36,5.93H28.57a.62.62,0,0,0,0,1.23H39.38v2.07h-.34a2.63,2.63,0,1,0,0,5.26h.36v.61A1.47,1.47,0,0,1,38,29.25H36.35a4.39,4.39,0,0,0-8.7,0H25.3ZM39.4,25.94h-.35a1.39,1.39,0,1,1,0-2.78h.34ZM12.92,33a3.18,3.18,0,1,1,3.16-3.18A3.19,3.19,0,0,1,12.92,33ZM1.19,1.19H24.08V21.92H1.19Zm0,22H24.08v6.09H17.27a4.4,4.4,0,0,0-8.71,0H2.64a1.46,1.46,0,0,1-1.45-1.46Z" fill="#1b181c"/></svg>